<?xml version="1.0" standalone="no"?><!DOCTYPE svg PUBLIC "-//W3C//DTD SVG 1.1//EN" "http://www.w3.org/Graphics/SVG/1.1/DTD/svg11.dtd"><svg t="1601022319333" class="icon" viewBox="0 0 1024 1024" version="1.1" xmlns="http://www.w3.org/2000/svg" p-id="1374" xmlns:xlink="http://www.w3.org/1999/xlink" width="80" height="80"><defs><style type="text/css"></style></defs><path d="M362.4 251.4H212.9v-74.8h74.7V64.5h74.8zM810.9 251.4H661.4V64.5h74.7v112.1h74.8z" fill="#7BF2FC" p-id="1375"></path><path d="M511.9 759.4L266 711c-52.4-10.3-90.5-56.6-90.5-110v-13.3c0-61.8 50.3-112.1 112.1-112.1h448.5c61.8 0 112.1 50.3 112.1 112.1V601c0 53.4-38.1 99.7-90.5 110l-245.8 48.4zM287.6 550.3c-20.6 0-37.4 16.8-37.4 37.4V601c0 17.8 12.7 33.2 30.2 36.7l231.4 45.5 231.4-45.5c17.5-3.4 30.2-18.9 30.2-36.7v-13.3c0-20.6-16.8-37.4-37.4-37.4H287.6zM567.9 961.5H455.8c-51.5 0-93.4-41.9-93.4-93.4s41.9-93.4 93.4-93.4h112.1c51.5 0 93.4 41.9 93.4 93.4 0.1 51.4-41.8 93.4-93.4 93.4zM455.8 849.3c-10.3 0-18.7 8.4-18.7 18.7s8.4 18.7 18.7 18.7h112.1c10.3 0 18.7-8.4 18.7-18.7s-8.4-18.7-18.7-18.7H455.8z" fill="#66B2F6" p-id="1376"></path><path d="M511.9 326.1c41.3 0 74.7 33.5 74.7 74.7v373.7c0 41.3-33.5 74.7-74.7 74.7-41.3 0-74.7-33.5-74.7-74.7V400.9c-0.1-41.3 33.4-74.8 74.7-74.8z" fill="#7EDBFE" p-id="1377"></path><path d="M362.4 400.9m-37.4 0a37.4 37.4 0 1 0 74.8 0 37.4 37.4 0 1 0-74.8 0Z" fill="#7EDBFE" p-id="1378"></path><path d="M661.4 400.9m-37.4 0a37.4 37.4 0 1 0 74.8 0 37.4 37.4 0 1 0-74.8 0Z" fill="#7EDBFE" p-id="1379"></path><path d="M347.1 312.6l-65.8-35.4c45.7-85.1 134.1-138 230.6-138 96.3 0 184.5 52.6 230.3 137.4l-65.8 35.5c-32.7-60.5-95.7-98.2-164.5-98.2-69 0.1-132.1 37.9-164.8 98.7z" fill="#66B2F6" p-id="1380"></path><path d="M761.2 513h-5.6l1.1-74.7c46.5 0.4 81.2-9 101.3-28.8 11.3-11.1 19-26.5 23.2-45.9h-145v-74.7h223.4v37.4c0 58.5-16.5 104.5-49 136.5-34.1 33.3-84.3 50.2-149.4 50.2zM262.3 513c-65 0-115-16.9-148.9-50.2-32.6-32.1-49.1-78-49.1-136.7v-37.4h223.4v74.7h-145c4.1 19.5 11.9 34.9 23.2 46 20.1 19.8 55.4 30.1 101.2 28.7l1.2 74.7c-2.1 0.2-4 0.2-6 0.2z" fill="#7BF2FC" p-id="1381"></path><path d="M661.4 550.3c-82.4 0-149.5-67.1-149.5-149.5s67-149.5 149.5-149.5 149.5 67.1 149.5 149.5-67.1 149.5-149.5 149.5z m0-224.2c-41.2 0-74.7 33.5-74.7 74.7s33.5 74.7 74.7 74.7 74.7-33.5 74.7-74.7-33.5-74.7-74.7-74.7zM362.4 550.3c-82.4 0-149.5-67.1-149.5-149.5s67-149.5 149.5-149.5 149.5 67.1 149.5 149.5-67.1 149.5-149.5 149.5z m0-224.2c-41.2 0-74.7 33.5-74.7 74.7s33.5 74.7 74.7 74.7 74.7-33.5 74.7-74.7-33.5-74.7-74.7-74.7z" fill="#66B2F6" p-id="1382"></path></svg>